<?xml version="1.0" encoding="utf-8"?>
<!-- Generator: Adobe Illustrator 17.1.0, SVG Export Plug-In . SVG Version: 6.00 Build 0)  -->
<!DOCTYPE svg PUBLIC "-//W3C//DTD SVG 1.1//EN" "http://www.w3.org/Graphics/SVG/1.1/DTD/svg11.dtd">
<svg version="1.1" id="Layer_1" xmlns="http://www.w3.org/2000/svg" xmlns:xlink="http://www.w3.org/1999/xlink" x="0px" y="0px"
	 viewBox="-482 -262 1920 1080" enable-background="new -482 -262 1920 1080" xml:space="preserve">
<path fill="none" d="M1105.2,656.4H978.5H853H728H602.5h-124H355H227.5H104H-21h-132.2c-33.5,0-63.9-13.4-86.2-35.1
	c-22.9-22.4-37.1-53.6-37.1-88.1V412.4V267.9v-139V25.6c0-35.8,15.3-68.1,39.7-90.6c22-20.3,51.3-32.7,83.6-32.7h97.7H70h124.5H319
	h126h124h37.2c35.9,0,68.3,15.4,90.8,39.9c20.1,21.9,32.4,51.2,32.4,83.3v143.7v123.8c0,36.8,16.1,69.8,41.7,92.4
	c21.7,19.2,50.3,30.8,81.5,30.8h3.5c34.8,0,66.2-14.4,88.6-37.6c21.4-22.2,34.6-52.4,34.6-85.6V153.4V25.6c0-36.7,16-69.6,41.4-92.2
	c21.8-19.3,50.4-31.1,81.8-31.1h2.5c34,0,64.8,13.8,87.2,36.1c22.3,22.3,36.1,53.1,36.1,87.2v76.7v127.5v122v111v70.3
	c0,31.4-11.7,60.1-31.1,81.8C1174.8,640.4,1141.9,656.4,1105.2,656.4z"/>
</svg>
